. 
 
http://www.torrenting.com          :     Once & For all ;)


               www . Torrenting . Com 

(((((((((((((= Enjoy No RAR releases =))))))))))))))))))))


...................................NFO:....................................

.                                                                                                     
       
     
     
       
       
     
     
                                         
                                         
                EXVID                    
                                         
         
                                         
         Filled the Archives             
                                         
         
                                         
                With:                    
                                         
         
                                         
                                    
     E240                           
                                    
     SP               (C) 2009      
                                         
     
     
     
                                                                                  
                                                                                   
        A.Midsummer.Nights.Sex.Comedy.1982.iNTERNAL.DVDRip.XviD-EXViDiNT            
                                                                                   
                                                                                  
     
                                                                                               
EXViD aims to iNTERNAL those releases which have been lost in the archives.
EXViD aims to PRE non-internal releases which have poor sources and are likely skipped by others. 
http://www.imdb.com/title/tt0084329/
Subtitles: EN, DE, FR, IT, ES, NL, PT, EL
Date: 2012.01

Director: Woody Allen

Genres: Comedy | Romance

Plot:
Centred around a weekend party at the home of inventor Andrew Hobbs and his wife Adrian, attended
by randy doctor Maxwell Jordan, his nurse Dulcy, renowned philosopher Dr.Leopold Sturgis and his
fiance, this is a light comedy concerning their various emotional, intellectual and sexual
entanglements, loosely based on Ingmar Bergman's 'Smiles of a Summer Night' .

Cast:
Woody Allen	...	Andrew
Mia Farrow	...	Ariel
Jos Ferrer	...	Leopold (as Jose Ferrer)
Julie Hagerty	...	Dulcy
Tony Roberts	...	Maxwell
Mary Steenburgen	...	Adrian
Adam Redfield	...	Student Foxx
Moishe Rosenfeld	...	Mr. Hayes
Timothy Jenkins	...	Mr. Thomson
Michael Higgins	...	Reynolds
Sol Frieder	...	Carstairs
Boris Zoubok	...	Purvis
Thomas Barbour	...	Blint
Kate McGregor-Stewart	...	Mrs. Baker
David Copeland	...	(uncredited)

Stats:
Format                                   : AVI
Format/Info                              : Audio Video Interleave
File size                                : 701 MiB
Duration                                 : 1h 24mn
Overall bit rate mode                    : Variable
Overall bit rate                         : 1 163 Kbps

Video
ID                                       : 0
Format                                   : MPEG-4 Visual
Format profile                           : Advanced Simple@L5
Format settings, BVOP                    : 2
Format settings, QPel                    : No
Format settings, GMC                     : No warppoints
Format settings, Matrix                  : Default (H.263)
Codec ID                                 : XVID
Codec ID/Hint                            : XviD
Duration                                 : 1h 24mn
Bit rate                                 : 1 033 Kbps
Width                                    : 624 pixels
Height                                   : 336 pixels
Display aspect ratio                     : 1.857
Frame rate                               : 25.000 fps
Color space                              : YUV
Chroma subsampling                       : 4:2:0
Bit depth                                : 8 bits
Scan type                                : Progressive
Compression mode                         : Lossy
Bits/(Pixel*Frame)                       : 0.197
Stream size                              : 623 MiB (89%)
Writing library                          : XviD 64

Audio
ID                                       : 1
Format                                   : MPEG Audio
Format version                           : Version 1
Format profile                           : Layer 3
Mode                                     : Joint stereo
Mode extension                           : MS Stereo
Codec ID                                 : 55
Codec ID/Hint                            : MP3
Duration                                 : 1h 24mn
Bit rate mode                            : Variable
Bit rate                                 : 117 Kbps
Channel(s)                               : 2 channels
Sampling rate                            : 48.0 KHz
Compression mode                         : Lossy
Stream size                              : 70.5 MiB (10%)
Alignment                                : Aligned on interleaves
Interleave, duration                     : 24 ms (0.60 video frame)
Interleave, preload duration             : 285 ms



Release notes:
Enjoy!

Looking for:
75TB+ Archives
DUTCH/FLEMiSH Archives
                                                                                                    
Greets: CRBS EPiSODE FiCO FLS iLS KLASSiGER LiPSYNC MADE NODLABS RUNNER SPRiNTER      
   

                                                                    ASCII DONE BY XX^NFO 2oo9